# xmcd CD database file
#
# Track frame offsets:
#	150
#	21530
#	41018
#	59545
#	76893
#	96780
#	120690
#	137963
#	164553
#
# Disc length: 2541 seconds
#
# Revision: 3
# Processed by: cddbd v1.5PL3 Copyright (c) Steve Scherf et al.
# Submitted via: CDex 1.51
#
DISCID=7e09eb09
DTITLE=Alice Cooper - Dada
DYEAR=1983
DGENRE=Hard Rock
TTITLE0=Dada
TTITLE1=Enough's Enough
TTITLE2=Former Lee Warmer
TTITLE3=No Man's Land
TTITLE4=Dyslexia
TTITLE5=Scarlet And Sheba
TTITLE6=I Love America
TTITLE7=Fresh Blood
TTITLE8=Pass The Gun Around
EXTD=1983, Warner, 7599-23969-2 YEAR: 1983
EXTT0=
EXTT1=
EXTT2=
EXTT3=
EXTT4=
EXTT5=
EXTT6=
EXTT7=
EXTT8=
PLAYORDER=
